<svg xmlns="http://www.w3.org/2000/svg" xmlns:xlink="http://www.w3.org/1999/xlink" width="500" zoomAndPan="magnify" viewBox="0 0 375 374.999991" height="500" preserveAspectRatio="xMidYMid meet" version="1.0"><defs><g/></defs><rect x="-37.5" width="450" fill="#ffffff" y="-37.499999" height="449.999989" fill-opacity="1"/><rect x="-37.5" width="450" fill="#ffffff" y="-37.499999" height="449.999989" fill-opacity="1"/><rect x="-37.5" width="450" fill="#ffffff" y="-37.499999" height="449.999989" fill-opacity="1"/><g fill="#000000" fill-opacity="1"><g transform="translate(37.505861, 270.042324)"><g><path d="M 125.375 -81.546875 C 135.757812 -79.285156 143.773438 -74.800781 149.421875 -68.09375 C 155.066406 -61.394531 157.890625 -52.773438 157.890625 -42.234375 C 157.890625 -28.679688 152.882812 -18.253906 142.875 -10.953125 C 132.863281 -3.648438 118.066406 0 98.484375 0 L 25.75 0 L 25.75 -158.125 L 93.96875 -158.125 C 111.59375 -158.125 125.257812 -154.582031 134.96875 -147.5 C 144.6875 -140.425781 149.546875 -130.414062 149.546875 -117.46875 C 149.546875 -108.726562 147.394531 -101.304688 143.09375 -95.203125 C 138.800781 -89.109375 132.894531 -84.554688 125.375 -81.546875 Z M 42.46875 -144.34375 L 42.46875 -86.96875 L 92.84375 -86.96875 C 105.644531 -86.96875 115.507812 -89.414062 122.4375 -94.3125 C 129.363281 -99.207031 132.828125 -106.320312 132.828125 -115.65625 C 132.828125 -124.988281 129.363281 -132.101562 122.4375 -137 C 115.507812 -141.894531 105.644531 -144.34375 92.84375 -144.34375 Z M 98.265625 -13.78125 C 112.421875 -13.78125 123.113281 -16.1875 130.34375 -21 C 137.570312 -25.820312 141.1875 -33.351562 141.1875 -43.59375 C 141.1875 -63.320312 126.878906 -73.1875 98.265625 -73.1875 L 42.46875 -73.1875 L 42.46875 -13.78125 Z M 98.265625 -13.78125 "/></g></g></g><g fill="#000000" fill-opacity="1"><g transform="translate(207.828518, 270.042324)"><g><path d="M 56.46875 -143.671875 L 0.90625 -143.671875 L 0.90625 -158.125 L 128.75 -158.125 L 128.75 -143.671875 L 73.1875 -143.671875 L 73.1875 0 L 56.46875 0 Z M 56.46875 -143.671875 "/></g></g></g></svg>